<?xml version="1.0" standalone="no"?>
<!DOCTYPE svg PUBLIC "-//W3C//DTD SVG 20010904//EN"
 "http://www.w3.org/TR/2001/REC-SVG-20010904/DTD/svg10.dtd">
<svg version="1.0" xmlns="http://www.w3.org/2000/svg"
 width="512.000000pt" height="512.000000pt" viewBox="0 0 512.000000 512.000000"
 preserveAspectRatio="xMidYMid meet">
<metadata>
Created by potrace 1.14, written by Peter Selinger 2001-2017
</metadata>
<g transform="translate(0.000000,512.000000) scale(0.100000,-0.100000)"
fill="#000000" stroke="none">
<path d="M2575 4983 c-44 -75 -87 -147 -95 -162 -9 -14 -23 -37 -32 -51 -19
-31 -249 -417 -264 -445 -13 -25 -260 -440 -282 -475 -9 -14 -23 -37 -32 -52
-31 -55 -79 -138 -202 -343 -265 -444 -788 -1324 -806 -1356 -11 -19 -57 -97
-104 -174 -118 -198 -246 -414 -291 -490 l-37 -65 20 -68 c12 -37 25 -74 29
-82 6 -12 130 -107 293 -224 10 -7 47 -97 85 -211 l68 -198 153 -115 c154
-116 174 -136 250 -247 23 -33 79 -97 124 -143 l83 -83 185 3 c146 2 192 6
220 20 19 9 49 21 65 26 17 6 149 56 295 112 146 56 281 106 301 112 30 8 68
4 197 -21 l160 -31 168 76 c93 42 203 92 244 111 41 19 134 62 205 95 266 123
266 123 360 133 33 3 69 8 80 10 11 2 45 7 75 10 72 7 94 11 225 41 61 14 117
27 126 29 17 3 79 43 317 199 105 69 132 91 127 104 -4 10 -12 31 -17 47 -6
17 -44 100 -86 185 -42 85 -76 157 -77 160 0 3 -31 68 -69 145 -38 77 -105
214 -149 305 -44 91 -118 244 -164 340 -47 96 -124 254 -171 350 -98 203 -210
433 -347 715 -53 110 -128 263 -165 340 -99 206 -219 453 -333 685 -55 113
-128 264 -162 336 l-63 130 -102 85 c-57 46 -108 90 -115 96 -11 11 -168 139
-200 164 -6 4 -42 -47 -90 -128z"/>
</g>
</svg>
